<?xml version="1.0" encoding="UTF-8" standalone="no"?>
<!DOCTYPE svg PUBLIC "-//W3C//DTD SVG 1.1//EN"
 "http://www.w3.org/Graphics/SVG/1.1/DTD/svg11.dtd">
<!-- Generated by graphviz version 2.43.0 (0)
 -->
<!-- Title: filesystem Pages: 1 -->
<svg width="6264pt" height="188pt"
 viewBox="0.00 0.00 6264.42 188.00" xmlns="http://www.w3.org/2000/svg" xmlns:xlink="http://www.w3.org/1999/xlink">
<g id="graph0" class="graph" transform="scale(1 1) rotate(0) translate(4 184)">
<title>filesystem</title>
<polygon fill="white" stroke="transparent" points="-4,4 -4,-184 6260.42,-184 6260.42,4 -4,4"/>
<!-- . -->
<g id="node1" class="node">
<title>.</title>
<ellipse fill="none" stroke="black" cx="4225.44" cy="-162" rx="27" ry="18"/>
<text text-anchor="middle" x="4225.44" y="-158.3" font-family="Times,serif" font-size="14.00">.</text>
</g>
<!-- ./info_to_send -->
<g id="node2" class="node">
<title>./info_to_send</title>
<ellipse fill="none" stroke="black" cx="929.44" cy="-90" rx="74.19" ry="18"/>
<text text-anchor="middle" x="929.44" y="-86.3" font-family="Times,serif" font-size="14.00">./info_to_send</text>
</g>
<!-- .&#45;&gt;./info_to_send -->
<g id="edge1" class="edge">
<title>.&#45;&gt;./info_to_send</title>
<path fill="none" stroke="black" d="M4198.42,-160.43C3915.51,-154.42 1496.14,-103.04 1013.14,-92.78"/>
<polygon fill="black" stroke="black" points="1013.17,-89.28 1003.1,-92.56 1013.02,-96.28 1013.17,-89.28"/>
</g>
<!-- ./functions -->
<g id="node3" class="node">
<title>./functions</title>
<ellipse fill="none" stroke="black" cx="3964.44" cy="-90" rx="59.59" ry="18"/>
<text text-anchor="middle" x="3964.44" y="-86.3" font-family="Times,serif" font-size="14.00">./functions</text>
</g>
<!-- .&#45;&gt;./functions -->
<g id="edge2" class="edge">
<title>.&#45;&gt;./functions</title>
<path fill="none" stroke="black" d="M4200.88,-154.41C4159.1,-143.21 4073.29,-120.19 4017.34,-105.19"/>
<polygon fill="black" stroke="black" points="4018.17,-101.79 4007.61,-102.58 4016.36,-108.55 4018.17,-101.79"/>
</g>
<!-- ./transmission.py -->
<g id="node4" class="node">
<title>./transmission.py</title>
<ellipse fill="none" stroke="black" cx="4133.44" cy="-90" rx="90.98" ry="18"/>
<text text-anchor="middle" x="4133.44" y="-86.3" font-family="Times,serif" font-size="14.00">./transmission.py</text>
</g>
<!-- .&#45;&gt;./transmission.py -->
<g id="edge3" class="edge">
<title>.&#45;&gt;./transmission.py</title>
<path fill="none" stroke="black" d="M4208.13,-147.83C4195.6,-138.3 4178.34,-125.16 4163.57,-113.92"/>
<polygon fill="black" stroke="black" points="4165.29,-110.84 4155.21,-107.57 4161.05,-116.41 4165.29,-110.84"/>
</g>
<!-- ./reception.py -->
<g id="node5" class="node">
<title>./reception.py</title>
<ellipse fill="none" stroke="black" cx="4317.44" cy="-90" rx="74.99" ry="18"/>
<text text-anchor="middle" x="4317.44" y="-86.3" font-family="Times,serif" font-size="14.00">./reception.py</text>
</g>
<!-- .&#45;&gt;./reception.py -->
<g id="edge4" class="edge">
<title>.&#45;&gt;./reception.py</title>
<path fill="none" stroke="black" d="M4242.74,-147.83C4255.48,-138.14 4273.1,-124.73 4288.03,-113.37"/>
<polygon fill="black" stroke="black" points="4290.16,-116.15 4296,-107.31 4285.92,-110.58 4290.16,-116.15"/>
</g>
<!-- ./__init__.py -->
<g id="node6" class="node">
<title>./__init__.py</title>
<ellipse fill="none" stroke="black" cx="4473.44" cy="-90" rx="63.89" ry="18"/>
<text text-anchor="middle" x="4473.44" y="-86.3" font-family="Times,serif" font-size="14.00">./__init__.py</text>
</g>
<!-- .&#45;&gt;./__init__.py -->
<g id="edge5" class="edge">
<title>.&#45;&gt;./__init__.py</title>
<path fill="none" stroke="black" d="M4250.12,-154.03C4289.49,-142.92 4367.39,-120.93 4419.96,-106.1"/>
<polygon fill="black" stroke="black" points="4421.11,-109.41 4429.79,-103.32 4419.21,-102.67 4421.11,-109.41"/>
</g>
<!-- ./tree_to_graph.py -->
<g id="node7" class="node">
<title>./tree_to_graph.py</title>
<ellipse fill="none" stroke="black" cx="4650.44" cy="-90" rx="94.78" ry="18"/>
<text text-anchor="middle" x="4650.44" y="-86.3" font-family="Times,serif" font-size="14.00">./tree_to_graph.py</text>
</g>
<!-- .&#45;&gt;./tree_to_graph.py -->
<g id="edge6" class="edge">
<title>.&#45;&gt;./tree_to_graph.py</title>
<path fill="none" stroke="black" d="M4251.38,-156.73C4313.7,-146.46 4473.84,-120.09 4571.26,-104.04"/>
<polygon fill="black" stroke="black" points="4572.06,-107.46 4581.36,-102.38 4570.92,-100.55 4572.06,-107.46"/>
</g>
<!-- ./info_to_send/bitstream.txt -->
<g id="node8" class="node">
<title>./info_to_send/bitstream.txt</title>
<ellipse fill="none" stroke="black" cx="138.44" cy="-18" rx="138.38" ry="18"/>
<text text-anchor="middle" x="138.44" y="-14.3" font-family="Times,serif" font-size="14.00">./info_to_send/bitstream.txt</text>
</g>
<!-- ./info_to_send&#45;&gt;./info_to_send/bitstream.txt -->
<g id="edge7" class="edge">
<title>./info_to_send&#45;&gt;./info_to_send/bitstream.txt</title>
<path fill="none" stroke="black" d="M859.44,-83.97C741.24,-75.31 494.61,-56.53 286.44,-36 273.62,-34.74 260.19,-33.32 246.86,-31.86"/>
<polygon fill="black" stroke="black" points="247.03,-28.36 236.71,-30.74 246.26,-35.31 247.03,-28.36"/>
</g>
<!-- ./info_to_send/text_report_1.txt -->
<g id="node9" class="node">
<title>./info_to_send/text_report_1.txt</title>
<ellipse fill="none" stroke="black" cx="450.44" cy="-18" rx="155.17" ry="18"/>
<text text-anchor="middle" x="450.44" y="-14.3" font-family="Times,serif" font-size="14.00">./info_to_send/text_report_1.txt</text>
</g>
<!-- ./info_to_send&#45;&gt;./info_to_send/text_report_1.txt -->
<g id="edge8" class="edge">
<title>./info_to_send&#45;&gt;./info_to_send/text_report_1.txt</title>
<path fill="none" stroke="black" d="M867.8,-79.99C788.24,-68.37 648.7,-47.97 553.03,-33.99"/>
<polygon fill="black" stroke="black" points="553.45,-30.52 543.05,-32.53 552.44,-37.44 553.45,-30.52"/>
</g>
<!-- ./info_to_send/image.png -->
<g id="node10" class="node">
<title>./info_to_send/image.png</title>
<ellipse fill="none" stroke="black" cx="749.44" cy="-18" rx="126.18" ry="18"/>
<text text-anchor="middle" x="749.44" y="-14.3" font-family="Times,serif" font-size="14.00">./info_to_send/image.png</text>
</g>
<!-- ./info_to_send&#45;&gt;./info_to_send/image.png -->
<g id="edge9" class="edge">
<title>./info_to_send&#45;&gt;./info_to_send/image.png</title>
<path fill="none" stroke="black" d="M891.7,-74.33C865.21,-64.02 829.48,-50.13 800.45,-38.84"/>
<polygon fill="black" stroke="black" points="801.48,-35.48 790.89,-35.12 798.94,-42.01 801.48,-35.48"/>
</g>
<!-- ./info_to_send/house_keeping_csv_test_1.csv -->
<g id="node11" class="node">
<title>./info_to_send/house_keeping_csv_test_1.csv</title>
<ellipse fill="none" stroke="black" cx="1109.44" cy="-18" rx="215.56" ry="18"/>
<text text-anchor="middle" x="1109.44" y="-14.3" font-family="Times,serif" font-size="14.00">./info_to_send/house_keeping_csv_test_1.csv</text>
</g>
<!-- ./info_to_send&#45;&gt;./info_to_send/house_keeping_csv_test_1.csv -->
<g id="edge10" class="edge">
<title>./info_to_send&#45;&gt;./info_to_send/house_keeping_csv_test_1.csv</title>
<path fill="none" stroke="black" d="M967.17,-74.33C993.2,-64.2 1028.15,-50.61 1056.89,-39.43"/>
<polygon fill="black" stroke="black" points="1058.33,-42.63 1066.38,-35.74 1055.79,-36.11 1058.33,-42.63"/>
</g>
<!-- ./info_to_send/house_keeping_json_test_1.json -->
<g id="node12" class="node">
<title>./info_to_send/house_keeping_json_test_1.json</title>
<ellipse fill="none" stroke="black" cx="1566.44" cy="-18" rx="223.66" ry="18"/>
<text text-anchor="middle" x="1566.44" y="-14.3" font-family="Times,serif" font-size="14.00">./info_to_send/house_keeping_json_test_1.json</text>
</g>
<!-- ./info_to_send&#45;&gt;./info_to_send/house_keeping_json_test_1.json -->
<g id="edge11" class="edge">
<title>./info_to_send&#45;&gt;./info_to_send/house_keeping_json_test_1.json</title>
<path fill="none" stroke="black" d="M995.51,-81.74C1097.64,-70.52 1296.01,-48.72 1429.87,-34.01"/>
<polygon fill="black" stroke="black" points="1430.64,-37.44 1440.2,-32.87 1429.88,-30.49 1430.64,-37.44"/>
</g>
<!-- ./functions/ook_decoding_func.py -->
<g id="node13" class="node">
<title>./functions/ook_decoding_func.py</title>
<ellipse fill="none" stroke="black" cx="1971.44" cy="-18" rx="163.27" ry="18"/>
<text text-anchor="middle" x="1971.44" y="-14.3" font-family="Times,serif" font-size="14.00">./functions/ook_decoding_func.py</text>
</g>
<!-- ./functions&#45;&gt;./functions/ook_decoding_func.py -->
<g id="edge12" class="edge">
<title>./functions&#45;&gt;./functions/ook_decoding_func.py</title>
<path fill="none" stroke="black" d="M3904.67,-88.75C3676.07,-87.49 2835.31,-79.95 2144.44,-36 2127.95,-34.95 2110.6,-33.57 2093.51,-32.05"/>
<polygon fill="black" stroke="black" points="2093.76,-28.56 2083.49,-31.15 2093.13,-35.53 2093.76,-28.56"/>
</g>
<!-- ./functions/jason_management_func.py -->
<g id="node14" class="node">
<title>./functions/jason_management_func.py</title>
<ellipse fill="none" stroke="black" cx="2343.44" cy="-18" rx="190.37" ry="18"/>
<text text-anchor="middle" x="2343.44" y="-14.3" font-family="Times,serif" font-size="14.00">./functions/jason_management_func.py</text>
</g>
<!-- ./functions&#45;&gt;./functions/jason_management_func.py -->
<g id="edge13" class="edge">
<title>./functions&#45;&gt;./functions/jason_management_func.py</title>
<path fill="none" stroke="black" d="M3904.82,-87.79C3709.45,-83.61 3070.76,-68.23 2543.44,-36 2524.39,-34.84 2504.35,-33.39 2484.6,-31.84"/>
<polygon fill="black" stroke="black" points="2484.87,-28.35 2474.62,-31.05 2484.31,-35.33 2484.87,-28.35"/>
</g>
<!-- ./functions/qam_fast.c -->
<g id="node15" class="node">
<title>./functions/qam_fast.c</title>
<ellipse fill="none" stroke="black" cx="2664.44" cy="-18" rx="112.38" ry="18"/>
<text text-anchor="middle" x="2664.44" y="-14.3" font-family="Times,serif" font-size="14.00">./functions/qam_fast.c</text>
</g>
<!-- ./functions&#45;&gt;./functions/qam_fast.c -->
<g id="edge14" class="edge">
<title>./functions&#45;&gt;./functions/qam_fast.c</title>
<path fill="none" stroke="black" d="M3904.8,-88.31C3731.54,-85.88 3213.38,-75.59 2785.44,-36 2774.68,-35.01 2763.42,-33.73 2752.28,-32.33"/>
<polygon fill="black" stroke="black" points="2752.46,-28.83 2742.09,-31.02 2751.56,-35.77 2752.46,-28.83"/>
</g>
<!-- ./functions/qam_fast.cpython&#45;310&#45;x86_64&#45;linux&#45;gnu.so -->
<g id="node16" class="node">
<title>./functions/qam_fast.cpython&#45;310&#45;x86_64&#45;linux&#45;gnu.so</title>
<ellipse fill="none" stroke="black" cx="3054.44" cy="-18" rx="259.95" ry="18"/>
<text text-anchor="middle" x="3054.44" y="-14.3" font-family="Times,serif" font-size="14.00">./functions/qam_fast.cpython&#45;310&#45;x86_64&#45;linux&#45;gnu.so</text>
</g>
<!-- ./functions&#45;&gt;./functions/qam_fast.cpython&#45;310&#45;x86_64&#45;linux&#45;gnu.so -->
<g id="edge15" class="edge">
<title>./functions&#45;&gt;./functions/qam_fast.cpython&#45;310&#45;x86_64&#45;linux&#45;gnu.so</title>
<path fill="none" stroke="black" d="M3907.17,-84.59C3774.15,-74.36 3439.79,-48.64 3231.47,-32.62"/>
<polygon fill="black" stroke="black" points="3231.57,-29.12 3221.33,-31.84 3231.04,-36.09 3231.57,-29.12"/>
</g>
<!-- ./functions/txt_management_func.py -->
<g id="node17" class="node">
<title>./functions/txt_management_func.py</title>
<ellipse fill="none" stroke="black" cx="3511.44" cy="-18" rx="178.97" ry="18"/>
<text text-anchor="middle" x="3511.44" y="-14.3" font-family="Times,serif" font-size="14.00">./functions/txt_management_func.py</text>
</g>
<!-- ./functions&#45;&gt;./functions/txt_management_func.py -->
<g id="edge16" class="edge">
<title>./functions&#45;&gt;./functions/txt_management_func.py</title>
<path fill="none" stroke="black" d="M3912.47,-80.97C3840.16,-69.8 3707.62,-49.32 3614.77,-34.97"/>
<polygon fill="black" stroke="black" points="3615.2,-31.49 3604.78,-33.42 3614.13,-38.41 3615.2,-31.49"/>
</g>
<!-- ./functions/__init__.py -->
<g id="node18" class="node">
<title>./functions/__init__.py</title>
<ellipse fill="none" stroke="black" cx="3818.44" cy="-18" rx="109.68" ry="18"/>
<text text-anchor="middle" x="3818.44" y="-14.3" font-family="Times,serif" font-size="14.00">./functions/__init__.py</text>
</g>
<!-- ./functions&#45;&gt;./functions/__init__.py -->
<g id="edge17" class="edge">
<title>./functions&#45;&gt;./functions/__init__.py</title>
<path fill="none" stroke="black" d="M3933.83,-74.33C3912.89,-64.28 3884.82,-50.83 3861.61,-39.7"/>
<polygon fill="black" stroke="black" points="3862.85,-36.41 3852.32,-35.24 3859.82,-42.72 3862.85,-36.41"/>
</g>
<!-- ./functions/telemetry_log_func.py -->
<g id="node19" class="node">
<title>./functions/telemetry_log_func.py</title>
<ellipse fill="none" stroke="black" cx="4111.44" cy="-18" rx="165.17" ry="18"/>
<text text-anchor="middle" x="4111.44" y="-14.3" font-family="Times,serif" font-size="14.00">./functions/telemetry_log_func.py</text>
</g>
<!-- ./functions&#45;&gt;./functions/telemetry_log_func.py -->
<g id="edge18" class="edge">
<title>./functions&#45;&gt;./functions/telemetry_log_func.py</title>
<path fill="none" stroke="black" d="M3994.9,-74.5C4015.83,-64.53 4043.96,-51.13 4067.34,-40"/>
<polygon fill="black" stroke="black" points="4068.85,-43.16 4076.37,-35.7 4065.84,-36.84 4068.85,-43.16"/>
</g>
<!-- ./functions/class_info.py -->
<g id="node20" class="node">
<title>./functions/class_info.py</title>
<ellipse fill="none" stroke="black" cx="4416.44" cy="-18" rx="121.58" ry="18"/>
<text text-anchor="middle" x="4416.44" y="-14.3" font-family="Times,serif" font-size="14.00">./functions/class_info.py</text>
</g>
<!-- ./functions&#45;&gt;./functions/class_info.py -->
<g id="edge19" class="edge">
<title>./functions&#45;&gt;./functions/class_info.py</title>
<path fill="none" stroke="black" d="M4008.09,-77.52C4016.47,-75.52 4025.2,-73.58 4033.44,-72 4060.9,-66.73 4214.87,-45.87 4319.03,-31.94"/>
<polygon fill="black" stroke="black" points="4319.5,-35.41 4328.95,-30.62 4318.57,-28.47 4319.5,-35.41"/>
</g>
<!-- ./functions/binfile_management_func.py -->
<g id="node21" class="node">
<title>./functions/binfile_management_func.py</title>
<ellipse fill="none" stroke="black" cx="4750.44" cy="-18" rx="194.17" ry="18"/>
<text text-anchor="middle" x="4750.44" y="-14.3" font-family="Times,serif" font-size="14.00">./functions/binfile_management_func.py</text>
</g>
<!-- ./functions&#45;&gt;./functions/binfile_management_func.py -->
<g id="edge20" class="edge">
<title>./functions&#45;&gt;./functions/binfile_management_func.py</title>
<path fill="none" stroke="black" d="M4006.9,-77.33C4015.62,-75.27 4024.78,-73.36 4033.44,-72 4259.67,-36.48 4319.11,-53.56 4547.44,-36 4565.45,-34.62 4584.35,-33.11 4603.07,-31.58"/>
<polygon fill="black" stroke="black" points="4603.46,-35.06 4613.14,-30.75 4602.89,-28.08 4603.46,-35.06"/>
</g>
<!-- ./functions/csv_management_func.py -->
<g id="node22" class="node">
<title>./functions/csv_management_func.py</title>
<ellipse fill="none" stroke="black" cx="5143.44" cy="-18" rx="180.87" ry="18"/>
<text text-anchor="middle" x="5143.44" y="-14.3" font-family="Times,serif" font-size="14.00">./functions/csv_management_func.py</text>
</g>
<!-- ./functions&#45;&gt;./functions/csv_management_func.py -->
<g id="edge21" class="edge">
<title>./functions&#45;&gt;./functions/csv_management_func.py</title>
<path fill="none" stroke="black" d="M4006.5,-77.2C4015.34,-75.13 4024.64,-73.24 4033.44,-72 4438.62,-14.76 4545.08,-62.24 4953.44,-36 4971.37,-34.85 4990.23,-33.42 5008.83,-31.89"/>
<polygon fill="black" stroke="black" points="5009.15,-35.37 5018.82,-31.05 5008.56,-28.4 5009.15,-35.37"/>
</g>
<!-- ./functions/types_to_bin_func.py -->
<g id="node23" class="node">
<title>./functions/types_to_bin_func.py</title>
<ellipse fill="none" stroke="black" cx="5501.44" cy="-18" rx="159.47" ry="18"/>
<text text-anchor="middle" x="5501.44" y="-14.3" font-family="Times,serif" font-size="14.00">./functions/types_to_bin_func.py</text>
</g>
<!-- ./functions&#45;&gt;./functions/types_to_bin_func.py -->
<g id="edge22" class="edge">
<title>./functions&#45;&gt;./functions/types_to_bin_func.py</title>
<path fill="none" stroke="black" d="M4006.49,-77.13C4015.33,-75.06 4024.64,-73.19 4033.44,-72 4606.21,5.58 4756.63,-73.12 5333.44,-36 5349.31,-34.98 5365.99,-33.63 5382.44,-32.13"/>
<polygon fill="black" stroke="black" points="5383,-35.59 5392.64,-31.18 5382.36,-28.62 5383,-35.59"/>
</g>
<!-- ./functions/qam_fast.pyx -->
<g id="node24" class="node">
<title>./functions/qam_fast.pyx</title>
<ellipse fill="none" stroke="black" cx="5802.44" cy="-18" rx="124.28" ry="18"/>
<text text-anchor="middle" x="5802.44" y="-14.3" font-family="Times,serif" font-size="14.00">./functions/qam_fast.pyx</text>
</g>
<!-- ./functions&#45;&gt;./functions/qam_fast.pyx -->
<g id="edge23" class="edge">
<title>./functions&#45;&gt;./functions/qam_fast.pyx</title>
<path fill="none" stroke="black" d="M4006.49,-77.09C4015.32,-75.02 4024.63,-73.17 4033.44,-72 4393.93,-24.22 5306.8,-63.09 5669.44,-36 5681.8,-35.08 5694.78,-33.8 5707.58,-32.36"/>
<polygon fill="black" stroke="black" points="5708.26,-35.81 5717.79,-31.17 5707.45,-28.85 5708.26,-35.81"/>
</g>
<!-- ./functions/QAM_modulation.py -->
<g id="node25" class="node">
<title>./functions/QAM_modulation.py</title>
<ellipse fill="none" stroke="black" cx="6100.44" cy="-18" rx="155.97" ry="18"/>
<text text-anchor="middle" x="6100.44" y="-14.3" font-family="Times,serif" font-size="14.00">./functions/QAM_modulation.py</text>
</g>
<!-- ./functions&#45;&gt;./functions/QAM_modulation.py -->
<g id="edge24" class="edge">
<title>./functions&#45;&gt;./functions/QAM_modulation.py</title>
<path fill="none" stroke="black" d="M4006.48,-77.07C4015.32,-75 4024.63,-73.15 4033.44,-72 4452.6,-17.1 5513.48,-61.69 5935.44,-36 5951.27,-35.04 5967.92,-33.7 5984.31,-32.2"/>
<polygon fill="black" stroke="black" points="5984.85,-35.66 5994.48,-31.24 5984.19,-28.69 5984.85,-35.66"/>
</g>
</g>
</svg>
