<?xml version="1.0" encoding="UTF-8" standalone="no"?>
<!DOCTYPE svg PUBLIC "-//W3C//DTD SVG 1.1//EN"
 "http://www.w3.org/Graphics/SVG/1.1/DTD/svg11.dtd">
<!-- Generated by graphviz version 2.43.0 (0)
 -->
<!-- Title: G Pages: 1 -->
<svg width="1289pt" height="588pt"
 viewBox="0.00 0.00 1288.78 587.91" xmlns="http://www.w3.org/2000/svg" xmlns:xlink="http://www.w3.org/1999/xlink">
<g id="graph0" class="graph" transform="scale(1 1) rotate(0) translate(4 583.91)">
<title>G</title><style>.edge>path:hover{stroke-width:8}</style>
<polygon fill="white" stroke="transparent" points="-4,4 -4,-583.91 1284.78,-583.91 1284.78,4 -4,4"/>
<!-- matplotlib -->
<g id="node1" class="node">
<title>matplotlib</title><style>.edge>path:hover{stroke-width:8}</style>
<polygon fill="blue" stroke="black" points="1259.28,-365.94 1192.28,-365.94 1192.28,-329.94 1259.28,-329.94 1259.28,-365.94"/>
<text text-anchor="middle" x="1225.78" y="-345.44" font-family="Helvetica,sans-Serif" font-size="10.00" fill="white">matplotlib</text>
</g>
<!-- python_rep_functions_QAM_modulation -->
<g id="node12" class="node">
<title>python_rep_functions_QAM_modulation</title><style>.edge>path:hover{stroke-width:8}</style>
<ellipse fill="#3a3a88" stroke="black" cx="176.78" cy="-122.97" rx="71.34" ry="28.98"/>
<text text-anchor="middle" x="176.78" y="-131.47" font-family="Helvetica,sans-Serif" font-size="10.00" fill="#ffffff">python_rep.</text>
<text text-anchor="middle" x="176.78" y="-120.47" font-family="Helvetica,sans-Serif" font-size="10.00" fill="#ffffff">functions.</text>
<text text-anchor="middle" x="176.78" y="-109.47" font-family="Helvetica,sans-Serif" font-size="10.00" fill="#ffffff">QAM_modulation</text>
</g>
<!-- matplotlib&#45;&gt;python_rep_functions_QAM_modulation -->
<g id="edge1" class="edge">
<title>matplotlib&#45;&gt;python_rep_functions_QAM_modulation</title><style>.edge>path:hover{stroke-width:8}</style>
<path fill="none" stroke="black" d="M1201.36,-329.74C1179.84,-312.27 1153.42,-283.77 1163.78,-254.96"/>
</g>
<!-- matplotlib_pyplot -->
<g id="node2" class="node">
<title>matplotlib_pyplot</title><style>.edge>path:hover{stroke-width:8}</style>
<polygon fill="blue" stroke="black" points="1280.78,-459.92 1210.78,-459.92 1210.78,-423.92 1280.78,-423.92 1280.78,-459.92"/>
<text text-anchor="middle" x="1245.78" y="-444.92" font-family="Helvetica,sans-Serif" font-size="10.00" fill="white">matplotlib.</text>
<text text-anchor="middle" x="1245.78" y="-433.92" font-family="Helvetica,sans-Serif" font-size="10.00" fill="white">pyplot</text>
</g>
<!-- matplotlib_pyplot&#45;&gt;matplotlib -->
<g id="edge2" class="edge">
<title>matplotlib_pyplot&#45;&gt;matplotlib</title><style>.edge>path:hover{stroke-width:8}</style>
<path fill="none" stroke="black" d="M1242.02,-423.62C1239.11,-410.26 1235.04,-391.52 1231.7,-376.15"/>
<polygon fill="blue" stroke="black" points="1235.07,-375.19 1229.53,-366.16 1228.23,-376.68 1235.07,-375.19"/>
</g>
<!-- matplotlib_pyplot&#45;&gt;python_rep_functions_QAM_modulation -->
<g id="edge3" class="edge">
<title>matplotlib_pyplot&#45;&gt;python_rep_functions_QAM_modulation</title><style>.edge>path:hover{stroke-width:8}</style>
<path fill="none" stroke="black" d="M1218.77,-423.6C1196.94,-407.44 1169.02,-381.03 1163.78,-348.94"/>
</g>
<!-- numba -->
<g id="node3" class="node">
<title>numba</title><style>.edge>path:hover{stroke-width:8}</style>
<ellipse fill="#3ab03a" stroke="black" cx="233.78" cy="-347.94" rx="29.37" ry="18"/>
<text text-anchor="middle" x="233.78" y="-345.44" font-family="Helvetica,sans-Serif" font-size="10.00" fill="#ffffff">numba</text>
</g>
<!-- numba&#45;&gt;python_rep_functions_QAM_modulation -->
<g id="edge4" class="edge">
<title>numba&#45;&gt;python_rep_functions_QAM_modulation</title><style>.edge>path:hover{stroke-width:8}</style>
<path fill="none" stroke="black" d="M261.94,-342.67C334.53,-331.37 533.68,-298.55 695.78,-254.96"/>
<path fill="none" stroke="black" d="M695.78,-252.96C726.55,-244.68 730.87,-232.7 761.78,-224.97 805.29,-214.08 1168.41,-233.57 1163.78,-188.97"/>
<path fill="none" stroke="black" d="M1163.78,-187.97C1159.12,-143 494.04,-128.71 258.39,-125.05"/>
<polygon fill="#3ab03a" stroke="black" points="258.23,-121.55 248.17,-124.9 258.12,-128.55 258.23,-121.55"/>
</g>
<!-- numpy -->
<g id="node4" class="node">
<title>numpy</title><style>.edge>path:hover{stroke-width:8}</style>
<ellipse fill="#06f9f9" stroke="black" cx="523.78" cy="-561.91" rx="29.37" ry="18"/>
<text text-anchor="middle" x="523.78" y="-559.41" font-family="Helvetica,sans-Serif" font-size="10.00" fill="#000000">numpy</text>
</g>
<!-- numpy&#45;&gt;matplotlib_pyplot -->
<g id="edge5" class="edge">
<title>numpy&#45;&gt;matplotlib_pyplot</title><style>.edge>path:hover{stroke-width:8}</style>
<path fill="none" stroke="black" d="M1144.78,-506.91C1167.84,-494.3 1192.79,-478.51 1212.13,-465.77"/>
<polygon fill="#06f9f9" stroke="black" points="1214.19,-468.6 1220.59,-460.15 1210.32,-462.77 1214.19,-468.6"/>
</g>
<!-- numpy&#45;&gt;numba -->
<g id="edge6" class="edge">
<title>numpy&#45;&gt;numba</title><style>.edge>path:hover{stroke-width:8}</style>
<path fill="none" stroke="black" d="M232.78,-506.91C225.77,-461.57 228.35,-408.04 230.98,-376.37"/>
<polygon fill="#06f9f9" stroke="black" points="234.49,-376.41 231.9,-366.14 227.52,-375.78 234.49,-376.41"/>
</g>
<!-- python_rep_functions_ook_decoding_func -->
<g id="node11" class="node">
<title>python_rep_functions_ook_decoding_func</title><style>.edge>path:hover{stroke-width:8}</style>
<ellipse fill="#43439d" stroke="black" cx="77.78" cy="-28.99" rx="77.56" ry="28.98"/>
<text text-anchor="middle" x="77.78" y="-37.49" font-family="Helvetica,sans-Serif" font-size="10.00" fill="#ffffff">python_rep.</text>
<text text-anchor="middle" x="77.78" y="-26.49" font-family="Helvetica,sans-Serif" font-size="10.00" fill="#ffffff">functions.</text>
<text text-anchor="middle" x="77.78" y="-15.49" font-family="Helvetica,sans-Serif" font-size="10.00" fill="#ffffff">ook_decoding_func</text>
</g>
<!-- numpy&#45;&gt;python_rep_functions_ook_decoding_func -->
<g id="edge7" class="edge">
<title>numpy&#45;&gt;python_rep_functions_ook_decoding_func</title><style>.edge>path:hover{stroke-width:8}</style>
<path fill="none" stroke="black" d="M122.78,-440.92C92.36,-403.56 120.6,-270.11 103.78,-224.97 96.89,-206.47 76.48,-208.66 77.78,-188.97"/>
</g>
<!-- numpy&#45;&gt;python_rep_functions_QAM_modulation -->
<g id="edge8" class="edge">
<title>numpy&#45;&gt;python_rep_functions_QAM_modulation</title><style>.edge>path:hover{stroke-width:8}</style>
<path fill="none" stroke="black" d="M553.28,-559.79C669.56,-555.18 1092.46,-536.55 1144.78,-507.91"/>
<path fill="none" stroke="black" d="M1144.78,-506.91C1206.82,-472.96 1175.17,-418.73 1163.78,-348.94"/>
<path fill="none" stroke="black" d="M1163.78,-346.94C1154.05,-307.23 1149.94,-293.42 1163.78,-254.96"/>
</g>
<!-- python_rep_functions_types_to_bin_func -->
<g id="node14" class="node">
<title>python_rep_functions_types_to_bin_func</title><style>.edge>path:hover{stroke-width:8}</style>
<ellipse fill="#26269b" stroke="black" cx="868.78" cy="-347.94" rx="74.49" ry="28.98"/>
<text text-anchor="middle" x="868.78" y="-356.44" font-family="Helvetica,sans-Serif" font-size="10.00" fill="#ffffff">python_rep.</text>
<text text-anchor="middle" x="868.78" y="-345.44" font-family="Helvetica,sans-Serif" font-size="10.00" fill="#ffffff">functions.</text>
<text text-anchor="middle" x="868.78" y="-334.44" font-family="Helvetica,sans-Serif" font-size="10.00" fill="#ffffff">types_to_bin_func</text>
</g>
<!-- numpy&#45;&gt;python_rep_functions_types_to_bin_func -->
<g id="edge9" class="edge">
<title>numpy&#45;&gt;python_rep_functions_types_to_bin_func</title><style>.edge>path:hover{stroke-width:8}</style>
<path fill="none" stroke="black" d="M232.78,-506.91C221.87,-437.09 806.3,-505.75 867.78,-470.91 880.86,-463.5 878.43,-455.43 886.78,-442.92"/>
<path fill="none" stroke="black" d="M886.78,-440.92C897.53,-424.82 894.4,-403.82 887.97,-385.95"/>
<polygon fill="#06f9f9" stroke="black" points="891.11,-384.37 884.13,-376.4 884.61,-386.98 891.11,-384.37"/>
</g>
<!-- scipy -->
<g id="node15" class="node">
<title>scipy</title><style>.edge>path:hover{stroke-width:8}</style>
<ellipse fill="#e90ce9" stroke="black" cx="177.78" cy="-441.92" rx="27" ry="18"/>
<text text-anchor="middle" x="177.78" y="-439.42" font-family="Helvetica,sans-Serif" font-size="10.00" fill="#ffffff">scipy</text>
</g>
<!-- numpy&#45;&gt;scipy -->
<g id="edge10" class="edge">
<title>numpy&#45;&gt;scipy</title><style>.edge>path:hover{stroke-width:8}</style>
<path fill="none" stroke="black" d="M232.78,-506.91C229.98,-488.81 216.8,-473.12 204.04,-461.81"/>
<polygon fill="#06f9f9" stroke="black" points="206.18,-459.04 196.24,-455.35 201.71,-464.43 206.18,-459.04"/>
</g>
<!-- scipy_io_wavfile -->
<g id="node17" class="node">
<title>scipy_io_wavfile</title><style>.edge>path:hover{stroke-width:8}</style>
<ellipse fill="#c040bf" stroke="black" cx="57.78" cy="-347.94" rx="36.54" ry="28.98"/>
<text text-anchor="middle" x="57.78" y="-356.44" font-family="Helvetica,sans-Serif" font-size="10.00" fill="#ffffff">scipy.</text>
<text text-anchor="middle" x="57.78" y="-345.44" font-family="Helvetica,sans-Serif" font-size="10.00" fill="#ffffff">io.</text>
<text text-anchor="middle" x="57.78" y="-334.44" font-family="Helvetica,sans-Serif" font-size="10.00" fill="#ffffff">wavfile</text>
</g>
<!-- numpy&#45;&gt;scipy_io_wavfile -->
<g id="edge11" class="edge">
<title>numpy&#45;&gt;scipy_io_wavfile</title><style>.edge>path:hover{stroke-width:8}</style>
<path fill="none" stroke="black" d="M494.17,-561.64C421.74,-562.61 240.89,-559.79 232.78,-507.91"/>
<path fill="none" stroke="black" d="M232.78,-506.91C226.07,-463.94 175.72,-498.11 141.78,-470.91 130.05,-461.51 132.28,-454.58 122.78,-442.92"/>
<path fill="none" stroke="black" d="M122.78,-440.92C107.61,-422.29 92.02,-400.35 79.92,-382.57"/>
<polygon fill="#06f9f9" stroke="black" points="82.77,-380.54 74.28,-374.21 76.97,-384.46 82.77,-380.54"/>
</g>
<!-- PIL -->
<g id="node5" class="node">
<title>PIL</title><style>.edge>path:hover{stroke-width:8}</style>
<ellipse fill="#d92626" stroke="black" cx="1012.78" cy="-561.91" rx="27" ry="18"/>
<text text-anchor="middle" x="1012.78" y="-559.41" font-family="Helvetica,sans-Serif" font-size="10.00" fill="#ffffff">PIL</text>
</g>
<!-- PIL&#45;&gt;matplotlib_pyplot -->
<g id="edge12" class="edge">
<title>PIL&#45;&gt;matplotlib_pyplot</title><style>.edge>path:hover{stroke-width:8}</style>
<path fill="none" stroke="black" d="M1037.48,-554.36C1067.29,-545.91 1118.44,-529.69 1158.78,-507.91 1180.12,-496.4 1201.97,-480.06 1218.43,-466.64"/>
<polygon fill="#d92626" stroke="black" points="1221.06,-469.01 1226.52,-459.93 1216.59,-463.62 1221.06,-469.01"/>
</g>
<!-- PIL&#45;&gt;python_rep_functions_types_to_bin_func -->
<g id="edge13" class="edge">
<title>PIL&#45;&gt;python_rep_functions_types_to_bin_func</title><style>.edge>path:hover{stroke-width:8}</style>
<path fill="none" stroke="black" d="M989.52,-552.41C944.81,-534.72 854.09,-491.54 886.78,-442.92"/>
</g>
<!-- PIL_Image -->
<g id="node6" class="node">
<title>PIL_Image</title><style>.edge>path:hover{stroke-width:8}</style>
<ellipse fill="#c04040" stroke="black" cx="1220.78" cy="-561.91" rx="38.03" ry="18"/>
<text text-anchor="middle" x="1220.78" y="-559.41" font-family="Helvetica,sans-Serif" font-size="10.00" fill="#ffffff">PIL.Image</text>
</g>
<!-- PIL_Image&#45;&gt;matplotlib_pyplot -->
<g id="edge14" class="edge">
<title>PIL_Image&#45;&gt;matplotlib_pyplot</title><style>.edge>path:hover{stroke-width:8}</style>
<path fill="none" stroke="black" d="M1220.78,-506.91C1220.14,-494.01 1224.52,-480.58 1229.78,-469.37"/>
<polygon fill="#c04040" stroke="black" points="1233.05,-470.65 1234.53,-460.16 1226.83,-467.44 1233.05,-470.65"/>
</g>
<!-- PIL_Image&#45;&gt;python_rep_functions_types_to_bin_func -->
<g id="edge15" class="edge">
<title>PIL_Image&#45;&gt;python_rep_functions_types_to_bin_func</title><style>.edge>path:hover{stroke-width:8}</style>
<path fill="none" stroke="black" d="M1221.21,-543.72C1221.36,-533.34 1221.37,-519.86 1220.78,-507.91"/>
<path fill="none" stroke="black" d="M1220.78,-506.91C1219.31,-477.25 1151.67,-427.48 1125.78,-412.93 1071.46,-382.4 1002.63,-366.26 949.88,-357.83"/>
<polygon fill="#c04040" stroke="black" points="950.31,-354.36 939.89,-356.3 949.24,-361.28 950.31,-354.36"/>
</g>
<!-- python_rep_functions_binfile_management_func -->
<g id="node7" class="node">
<title>python_rep_functions_binfile_management_func</title><style>.edge>path:hover{stroke-width:8}</style>
<ellipse fill="#4747c2" stroke="black" cx="1015.78" cy="-441.92" rx="101.23" ry="28.98"/>
<text text-anchor="middle" x="1015.78" y="-450.42" font-family="Helvetica,sans-Serif" font-size="10.00" fill="#ffffff">python_rep.</text>
<text text-anchor="middle" x="1015.78" y="-439.42" font-family="Helvetica,sans-Serif" font-size="10.00" fill="#ffffff">functions.</text>
<text text-anchor="middle" x="1015.78" y="-428.42" font-family="Helvetica,sans-Serif" font-size="10.00" fill="#ffffff">binfile_management_func</text>
</g>
<!-- python_rep_functions_binfile_management_func&#45;&gt;python_rep_functions_types_to_bin_func -->
<g id="edge16" class="edge">
<title>python_rep_functions_binfile_management_func&#45;&gt;python_rep_functions_types_to_bin_func</title><style>.edge>path:hover{stroke-width:8}</style>
<path fill="none" stroke="black" d="M974.83,-415.3C956.42,-403.78 934.58,-390.11 915.53,-378.19"/>
<polygon fill="#4747c2" stroke="black" points="917.32,-375.18 906.99,-372.85 913.61,-381.12 917.32,-375.18"/>
</g>
<!-- python_rep_functions_class_info -->
<g id="node8" class="node">
<title>python_rep_functions_class_info</title><style>.edge>path:hover{stroke-width:8}</style>
<ellipse fill="#43439d" stroke="black" cx="822.78" cy="-253.96" rx="52.15" ry="28.98"/>
<text text-anchor="middle" x="822.78" y="-262.46" font-family="Helvetica,sans-Serif" font-size="10.00" fill="#ffffff">python_rep.</text>
<text text-anchor="middle" x="822.78" y="-251.46" font-family="Helvetica,sans-Serif" font-size="10.00" fill="#ffffff">functions.</text>
<text text-anchor="middle" x="822.78" y="-240.46" font-family="Helvetica,sans-Serif" font-size="10.00" fill="#ffffff">class_info</text>
</g>
<!-- python_rep_functions_csv_management_func -->
<g id="node9" class="node">
<title>python_rep_functions_csv_management_func</title><style>.edge>path:hover{stroke-width:8}</style>
<ellipse fill="#3b3bce" stroke="black" cx="766.78" cy="-441.92" rx="91.85" ry="28.98"/>
<text text-anchor="middle" x="766.78" y="-450.42" font-family="Helvetica,sans-Serif" font-size="10.00" fill="#ffffff">python_rep.</text>
<text text-anchor="middle" x="766.78" y="-439.42" font-family="Helvetica,sans-Serif" font-size="10.00" fill="#ffffff">functions.</text>
<text text-anchor="middle" x="766.78" y="-428.42" font-family="Helvetica,sans-Serif" font-size="10.00" fill="#ffffff">csv_management_func</text>
</g>
<!-- python_rep_functions_csv_management_func&#45;&gt;python_rep_functions_class_info -->
<g id="edge17" class="edge">
<title>python_rep_functions_csv_management_func&#45;&gt;python_rep_functions_class_info</title><style>.edge>path:hover{stroke-width:8}</style>
<path fill="none" stroke="black" d="M757.09,-412.79C751.87,-391.9 749.59,-364.45 766.78,-348.94"/>
</g>
<!-- python_rep_functions_csv_management_func&#45;&gt;python_rep_functions_types_to_bin_func -->
<g id="edge18" class="edge">
<title>python_rep_functions_csv_management_func&#45;&gt;python_rep_functions_types_to_bin_func</title><style>.edge>path:hover{stroke-width:8}</style>
<path fill="none" stroke="black" d="M796.28,-414.32C807.58,-404.13 820.59,-392.4 832.45,-381.7"/>
<polygon fill="#3b3bce" stroke="black" points="834.97,-384.15 840.05,-374.85 830.28,-378.95 834.97,-384.15"/>
</g>
<!-- python_rep_functions_jason_management_func -->
<g id="node10" class="node">
<title>python_rep_functions_jason_management_func</title><style>.edge>path:hover{stroke-width:8}</style>
<ellipse fill="#3b3bce" stroke="black" cx="359.78" cy="-441.92" rx="98.99" ry="28.98"/>
<text text-anchor="middle" x="359.78" y="-450.42" font-family="Helvetica,sans-Serif" font-size="10.00" fill="#ffffff">python_rep.</text>
<text text-anchor="middle" x="359.78" y="-439.42" font-family="Helvetica,sans-Serif" font-size="10.00" fill="#ffffff">functions.</text>
<text text-anchor="middle" x="359.78" y="-428.42" font-family="Helvetica,sans-Serif" font-size="10.00" fill="#ffffff">jason_management_func</text>
</g>
<!-- python_rep_functions_jason_management_func&#45;&gt;python_rep_functions_class_info -->
<g id="edge19" class="edge">
<title>python_rep_functions_jason_management_func&#45;&gt;python_rep_functions_class_info</title><style>.edge>path:hover{stroke-width:8}</style>
<path fill="none" stroke="black" d="M429.79,-421.41C442.37,-418.3 455.42,-415.32 467.78,-412.93 590.98,-389.14 640.89,-442.64 747.78,-376.93 760.59,-369.06 755.62,-359.01 766.78,-348.94"/>
<path fill="none" stroke="black" d="M766.78,-346.94C771.7,-342.5 788.37,-314.73 802.25,-290.85"/>
<polygon fill="#3b3bce" stroke="black" points="805.42,-292.36 807.41,-281.95 799.37,-288.85 805.42,-292.36"/>
</g>
<!-- python_rep_functions_jason_management_func&#45;&gt;python_rep_functions_types_to_bin_func -->
<g id="edge20" class="edge">
<title>python_rep_functions_jason_management_func&#45;&gt;python_rep_functions_types_to_bin_func</title><style>.edge>path:hover{stroke-width:8}</style>
<path fill="none" stroke="black" d="M429.76,-421.28C442.35,-418.17 455.4,-415.24 467.78,-412.93 605.44,-387.3 643.87,-406.29 780.78,-376.93 788.69,-375.23 796.91,-373.12 805,-370.81"/>
<polygon fill="#3b3bce" stroke="black" points="806.17,-374.12 814.77,-367.93 804.19,-367.4 806.17,-374.12"/>
</g>
<!-- python_rep_functions_txt_management_func -->
<g id="node13" class="node">
<title>python_rep_functions_txt_management_func</title><style>.edge>path:hover{stroke-width:8}</style>
<ellipse fill="#3b3bce" stroke="black" cx="566.78" cy="-441.92" rx="89.61" ry="28.98"/>
<text text-anchor="middle" x="566.78" y="-450.42" font-family="Helvetica,sans-Serif" font-size="10.00" fill="#ffffff">python_rep.</text>
<text text-anchor="middle" x="566.78" y="-439.42" font-family="Helvetica,sans-Serif" font-size="10.00" fill="#ffffff">functions.</text>
<text text-anchor="middle" x="566.78" y="-428.42" font-family="Helvetica,sans-Serif" font-size="10.00" fill="#ffffff">txt_management_func</text>
</g>
<!-- python_rep_functions_txt_management_func&#45;&gt;python_rep_functions_class_info -->
<g id="edge21" class="edge">
<title>python_rep_functions_txt_management_func&#45;&gt;python_rep_functions_class_info</title><style>.edge>path:hover{stroke-width:8}</style>
<path fill="none" stroke="black" d="M633.21,-422.19C676.91,-408.98 729.31,-391.18 747.78,-376.93 759.69,-367.75 755.62,-359.01 766.78,-348.94"/>
</g>
<!-- python_rep_functions_txt_management_func&#45;&gt;python_rep_functions_types_to_bin_func -->
<g id="edge22" class="edge">
<title>python_rep_functions_txt_management_func&#45;&gt;python_rep_functions_types_to_bin_func</title><style>.edge>path:hover{stroke-width:8}</style>
<path fill="none" stroke="black" d="M631.96,-421.75C674.4,-409.19 730.94,-392.31 780.78,-376.93 787.92,-374.73 795.37,-372.4 802.79,-370.07"/>
<polygon fill="#3b3bce" stroke="black" points="804.01,-373.35 812.49,-367 801.9,-366.68 804.01,-373.35"/>
</g>
<!-- python_rep_functions_types_to_bin_func&#45;&gt;python_rep_functions_class_info -->
<g id="edge23" class="edge">
<title>python_rep_functions_types_to_bin_func&#45;&gt;python_rep_functions_class_info</title><style>.edge>path:hover{stroke-width:8}</style>
<path fill="none" stroke="black" d="M854.98,-319.34C850.57,-310.53 845.63,-300.64 840.96,-291.31"/>
<polygon fill="#26269b" stroke="black" points="844.02,-289.6 836.42,-282.22 837.76,-292.73 844.02,-289.6"/>
</g>
<!-- python_rep_functions_types_to_bin_func&#45;&gt;python_rep_functions_QAM_modulation -->
<g id="edge24" class="edge">
<title>python_rep_functions_types_to_bin_func&#45;&gt;python_rep_functions_QAM_modulation</title><style>.edge>path:hover{stroke-width:8}</style>
<path fill="none" stroke="black" d="M938.54,-337.7C1020.74,-324.89 1148.19,-298.31 1163.78,-254.96"/>
<path fill="none" stroke="black" d="M1163.78,-252.96C1173.41,-226.2 1166.71,-217.25 1163.78,-188.97"/>
</g>
<!-- scipy&#45;&gt;numba -->
<g id="edge25" class="edge">
<title>scipy&#45;&gt;numba</title><style>.edge>path:hover{stroke-width:8}</style>
<path fill="none" stroke="black" d="M187.54,-424.9C196.08,-410.87 208.63,-390.26 218.5,-374.04"/>
<polygon fill="#e90ce9" stroke="black" points="221.74,-375.45 223.95,-365.09 215.76,-371.81 221.74,-375.45"/>
</g>
<!-- scipy&#45;&gt;python_rep_functions_ook_decoding_func -->
<g id="edge26" class="edge">
<title>scipy&#45;&gt;python_rep_functions_ook_decoding_func</title><style>.edge>path:hover{stroke-width:8}</style>
<path fill="none" stroke="black" d="M181.3,-423.82C189.1,-382.26 205.02,-273.15 176.78,-188.97"/>
<path fill="none" stroke="black" d="M176.78,-187.97C160.83,-152.39 126.64,-177.04 96.78,-151.97 85.27,-142.29 82.56,-138.23 77.78,-123.97"/>
</g>
<!-- scipy&#45;&gt;python_rep_functions_QAM_modulation -->
<g id="edge27" class="edge">
<title>scipy&#45;&gt;python_rep_functions_QAM_modulation</title><style>.edge>path:hover{stroke-width:8}</style>
<path fill="none" stroke="black" d="M176.78,-187.97C174.07,-179.88 172.98,-170.89 172.79,-162.26"/>
<polygon fill="#e90ce9" stroke="black" points="176.3,-162.06 172.96,-152 169.3,-161.94 176.3,-162.06"/>
</g>
<!-- scipy_io -->
<g id="node16" class="node">
<title>scipy_io</title><style>.edge>path:hover{stroke-width:8}</style>
<ellipse fill="#b03ab0" stroke="black" cx="63.78" cy="-253.96" rx="31.4" ry="18"/>
<text text-anchor="middle" x="63.78" y="-251.46" font-family="Helvetica,sans-Serif" font-size="10.00" fill="#ffffff">scipy.io</text>
</g>
<!-- scipy_io&#45;&gt;python_rep_functions_ook_decoding_func -->
<g id="edge28" class="edge">
<title>scipy_io&#45;&gt;python_rep_functions_ook_decoding_func</title><style>.edge>path:hover{stroke-width:8}</style>
<path fill="none" stroke="black" d="M68.56,-236.01C71.9,-223.21 76.07,-205.14 77.78,-188.97"/>
</g>
<!-- scipy_io_wavfile&#45;&gt;python_rep_functions_ook_decoding_func -->
<g id="edge29" class="edge">
<title>scipy_io_wavfile&#45;&gt;python_rep_functions_ook_decoding_func</title><style>.edge>path:hover{stroke-width:8}</style>
<path fill="none" stroke="black" d="M40.31,-321.91C24.83,-296.37 7.08,-256.17 23.78,-224.97 37.39,-199.53 74.75,-217.65 77.78,-188.97"/>
<path fill="none" stroke="black" d="M77.78,-187.97C79.65,-159.59 86.83,-150.94 77.78,-123.97"/>
<path fill="none" stroke="black" d="M77.78,-121.97C72.06,-104.92 71.38,-85.07 72.4,-68.18"/>
<polygon fill="#c040bf" stroke="black" points="75.9,-68.36 73.23,-58.1 68.92,-67.78 75.9,-68.36"/>
</g>
<!-- scipy_io_wavfile&#45;&gt;scipy_io -->
<g id="edge30" class="edge">
<title>scipy_io_wavfile&#45;&gt;scipy_io</title><style>.edge>path:hover{stroke-width:8}</style>
<path fill="none" stroke="black" d="M59.61,-318.84C60.37,-307.31 61.23,-294 61.98,-282.53"/>
<polygon fill="#c040bf" stroke="black" points="65.5,-282.41 62.66,-272.2 58.51,-281.96 65.5,-282.41"/>
</g>
<!-- scipy_signal -->
<g id="node18" class="node">
<title>scipy_signal</title><style>.edge>path:hover{stroke-width:8}</style>
<ellipse fill="#b83db8" stroke="black" cx="695.78" cy="-347.94" rx="42.94" ry="18"/>
<text text-anchor="middle" x="695.78" y="-345.44" font-family="Helvetica,sans-Serif" font-size="10.00" fill="#ffffff">scipy.signal</text>
</g>
<!-- scipy_signal&#45;&gt;python_rep_functions_QAM_modulation -->
<g id="edge31" class="edge">
<title>scipy_signal&#45;&gt;python_rep_functions_QAM_modulation</title><style>.edge>path:hover{stroke-width:8}</style>
<path fill="none" stroke="black" d="M688.59,-329.81C679.43,-305.34 667.87,-262.46 695.78,-254.96"/>
</g>
</g>
</svg>
